<svg xmlns="http://www.w3.org/2000/svg" xmlns:xlink="http://www.w3.org/1999/xlink" width="200" zoomAndPan="magnify" viewBox="0 0 150 30.000001" height="40" preserveAspectRatio="xMidYMid meet" version="1.0"><defs><g/><clipPath id="4b8a586e4e"><path d="M 2.417969 0 L 147.578125 0 L 147.578125 29.03125 L 2.417969 29.03125 Z M 2.417969 0 " clip-rule="nonzero"/></clipPath></defs><g clip-path="url(#4b8a586e4e)"><path fill="#ffffff" d="M 2.417969 0 L 147.582031 0 L 147.582031 36.289062 L 2.417969 36.289062 Z M 2.417969 0 " fill-opacity="1" fill-rule="nonzero"/><path fill="#ffffff" d="M 2.417969 0 L 147.582031 0 L 147.582031 29.03125 L 2.417969 29.03125 Z M 2.417969 0 " fill-opacity="1" fill-rule="nonzero"/><path fill="#ffffff" d="M 2.417969 0 L 147.582031 0 L 147.582031 29.03125 L 2.417969 29.03125 Z M 2.417969 0 " fill-opacity="1" fill-rule="nonzero"/></g><g fill="#000000" fill-opacity="1"><g transform="translate(3.774061, 19.532726)"><g><path d="M 5.859375 0 L 2.421875 0 C 2.128906 0 1.914062 -0.0625 1.78125 -0.1875 C 1.65625 -0.320312 1.59375 -0.535156 1.59375 -0.828125 L 1.59375 -15.78125 C 1.59375 -16.070312 1.65625 -16.28125 1.78125 -16.40625 C 1.914062 -16.539062 2.128906 -16.609375 2.421875 -16.609375 L 6.140625 -16.609375 C 6.378906 -16.609375 6.578125 -16.550781 6.734375 -16.4375 C 6.898438 -16.332031 7.054688 -16.15625 7.203125 -15.90625 L 9.265625 -12.15625 C 9.347656 -12.019531 9.414062 -11.921875 9.46875 -11.859375 C 9.519531 -11.796875 9.59375 -11.765625 9.6875 -11.765625 L 9.890625 -11.765625 C 9.984375 -11.765625 10.054688 -11.796875 10.109375 -11.859375 C 10.160156 -11.921875 10.226562 -12.019531 10.3125 -12.15625 L 12.359375 -15.90625 C 12.492188 -16.15625 12.640625 -16.332031 12.796875 -16.4375 C 12.960938 -16.550781 13.171875 -16.609375 13.421875 -16.609375 L 17.15625 -16.609375 C 17.445312 -16.609375 17.65625 -16.539062 17.78125 -16.40625 C 17.914062 -16.28125 17.984375 -16.070312 17.984375 -15.78125 L 17.984375 -0.828125 C 17.984375 -0.535156 17.914062 -0.320312 17.78125 -0.1875 C 17.65625 -0.0625 17.445312 0 17.15625 0 L 13.609375 0 C 13.316406 0 13.101562 -0.0625 12.96875 -0.1875 C 12.84375 -0.320312 12.78125 -0.535156 12.78125 -0.828125 L 12.78125 -8.953125 L 11.421875 -6.4375 C 11.273438 -6.175781 11.101562 -5.988281 10.90625 -5.875 C 10.71875 -5.757812 10.476562 -5.703125 10.1875 -5.703125 L 9.265625 -5.703125 C 8.972656 -5.703125 8.726562 -5.757812 8.53125 -5.875 C 8.34375 -5.988281 8.179688 -6.175781 8.046875 -6.4375 L 6.6875 -8.953125 L 6.6875 -0.828125 C 6.6875 -0.535156 6.617188 -0.320312 6.484375 -0.1875 C 6.359375 -0.0625 6.148438 0 5.859375 0 Z M 5.859375 0 "/></g></g></g><g fill="#000000" fill-opacity="1"><g transform="translate(23.350736, 19.532726)"><g><path d="M 2.046875 0 C 1.753906 0 1.539062 -0.0625 1.40625 -0.1875 C 1.28125 -0.320312 1.21875 -0.535156 1.21875 -0.828125 L 1.21875 -3.578125 C 1.21875 -3.867188 1.28125 -4.078125 1.40625 -4.203125 C 1.539062 -4.335938 1.753906 -4.40625 2.046875 -4.40625 L 4.328125 -4.40625 L 4.328125 -12.15625 L 2.046875 -12.15625 C 1.753906 -12.15625 1.539062 -12.21875 1.40625 -12.34375 C 1.28125 -12.476562 1.21875 -12.691406 1.21875 -12.984375 L 1.21875 -15.78125 C 1.21875 -16.070312 1.28125 -16.28125 1.40625 -16.40625 C 1.539062 -16.539062 1.753906 -16.609375 2.046875 -16.609375 L 11.875 -16.609375 C 12.164062 -16.609375 12.375 -16.539062 12.5 -16.40625 C 12.632812 -16.28125 12.703125 -16.070312 12.703125 -15.78125 L 12.703125 -12.984375 C 12.703125 -12.691406 12.632812 -12.476562 12.5 -12.34375 C 12.375 -12.21875 12.164062 -12.15625 11.875 -12.15625 L 9.640625 -12.15625 L 9.640625 -4.40625 L 11.875 -4.40625 C 12.164062 -4.40625 12.375 -4.335938 12.5 -4.203125 C 12.632812 -4.078125 12.703125 -3.867188 12.703125 -3.578125 L 12.703125 -0.828125 C 12.703125 -0.535156 12.632812 -0.320312 12.5 -0.1875 C 12.375 -0.0625 12.164062 0 11.875 0 Z M 2.046875 0 "/></g></g></g><g fill="#000000" fill-opacity="1"><g transform="translate(37.301133, 19.532726)"><g><path d="M 5.875 0 L 2.421875 0 C 2.128906 0 1.914062 -0.0625 1.78125 -0.1875 C 1.65625 -0.320312 1.59375 -0.535156 1.59375 -0.828125 L 1.59375 -15.78125 C 1.59375 -16.070312 1.65625 -16.28125 1.78125 -16.40625 C 1.914062 -16.539062 2.128906 -16.609375 2.421875 -16.609375 L 4.8125 -16.609375 C 5.113281 -16.609375 5.363281 -16.5625 5.5625 -16.46875 C 5.769531 -16.375 5.976562 -16.210938 6.1875 -15.984375 L 10.65625 -10.859375 L 10.65625 -15.78125 C 10.65625 -16.070312 10.71875 -16.28125 10.84375 -16.40625 C 10.976562 -16.539062 11.191406 -16.609375 11.484375 -16.609375 L 14.9375 -16.609375 C 15.226562 -16.609375 15.441406 -16.539062 15.578125 -16.40625 C 15.710938 -16.28125 15.78125 -16.070312 15.78125 -15.78125 L 15.78125 -0.828125 C 15.78125 -0.535156 15.710938 -0.320312 15.578125 -0.1875 C 15.441406 -0.0625 15.226562 0 14.9375 0 L 11.484375 0 C 11.191406 0 10.976562 -0.0625 10.84375 -0.1875 C 10.71875 -0.320312 10.65625 -0.535156 10.65625 -0.828125 L 10.65625 -3.671875 L 6.71875 -8.4375 L 6.71875 -0.828125 C 6.71875 -0.535156 6.648438 -0.320312 6.515625 -0.1875 C 6.378906 -0.0625 6.164062 0 5.875 0 Z M 5.875 0 "/></g></g></g><g fill="#000000" fill-opacity="1"><g transform="translate(54.664187, 19.532726)"><g/></g></g><g fill="#fed330" fill-opacity="1"><g transform="translate(1.882439, 17.356663)"><g><path d="M 5.859375 0 L 2.421875 0 C 2.128906 0 1.914062 -0.0625 1.78125 -0.1875 C 1.65625 -0.320312 1.59375 -0.535156 1.59375 -0.828125 L 1.59375 -15.78125 C 1.59375 -16.070312 1.65625 -16.28125 1.78125 -16.40625 C 1.914062 -16.539062 2.128906 -16.609375 2.421875 -16.609375 L 6.140625 -16.609375 C 6.378906 -16.609375 6.578125 -16.550781 6.734375 -16.4375 C 6.898438 -16.332031 7.054688 -16.15625 7.203125 -15.90625 L 9.265625 -12.15625 C 9.347656 -12.019531 9.414062 -11.921875 9.46875 -11.859375 C 9.519531 -11.796875 9.59375 -11.765625 9.6875 -11.765625 L 9.890625 -11.765625 C 9.984375 -11.765625 10.054688 -11.796875 10.109375 -11.859375 C 10.160156 -11.921875 10.226562 -12.019531 10.3125 -12.15625 L 12.359375 -15.90625 C 12.492188 -16.15625 12.640625 -16.332031 12.796875 -16.4375 C 12.960938 -16.550781 13.171875 -16.609375 13.421875 -16.609375 L 17.15625 -16.609375 C 17.445312 -16.609375 17.65625 -16.539062 17.78125 -16.40625 C 17.914062 -16.28125 17.984375 -16.070312 17.984375 -15.78125 L 17.984375 -0.828125 C 17.984375 -0.535156 17.914062 -0.320312 17.78125 -0.1875 C 17.65625 -0.0625 17.445312 0 17.15625 0 L 13.609375 0 C 13.316406 0 13.101562 -0.0625 12.96875 -0.1875 C 12.84375 -0.320312 12.78125 -0.535156 12.78125 -0.828125 L 12.78125 -8.953125 L 11.421875 -6.4375 C 11.273438 -6.175781 11.101562 -5.988281 10.90625 -5.875 C 10.71875 -5.757812 10.476562 -5.703125 10.1875 -5.703125 L 9.265625 -5.703125 C 8.972656 -5.703125 8.726562 -5.757812 8.53125 -5.875 C 8.34375 -5.988281 8.179688 -6.175781 8.046875 -6.4375 L 6.6875 -8.953125 L 6.6875 -0.828125 C 6.6875 -0.535156 6.617188 -0.320312 6.484375 -0.1875 C 6.359375 -0.0625 6.148438 0 5.859375 0 Z M 5.859375 0 "/></g></g></g><g fill="#fed330" fill-opacity="1"><g transform="translate(21.459114, 17.356663)"><g><path d="M 2.046875 0 C 1.753906 0 1.539062 -0.0625 1.40625 -0.1875 C 1.28125 -0.320312 1.21875 -0.535156 1.21875 -0.828125 L 1.21875 -3.578125 C 1.21875 -3.867188 1.28125 -4.078125 1.40625 -4.203125 C 1.539062 -4.335938 1.753906 -4.40625 2.046875 -4.40625 L 4.328125 -4.40625 L 4.328125 -12.15625 L 2.046875 -12.15625 C 1.753906 -12.15625 1.539062 -12.21875 1.40625 -12.34375 C 1.28125 -12.476562 1.21875 -12.691406 1.21875 -12.984375 L 1.21875 -15.78125 C 1.21875 -16.070312 1.28125 -16.28125 1.40625 -16.40625 C 1.539062 -16.539062 1.753906 -16.609375 2.046875 -16.609375 L 11.875 -16.609375 C 12.164062 -16.609375 12.375 -16.539062 12.5 -16.40625 C 12.632812 -16.28125 12.703125 -16.070312 12.703125 -15.78125 L 12.703125 -12.984375 C 12.703125 -12.691406 12.632812 -12.476562 12.5 -12.34375 C 12.375 -12.21875 12.164062 -12.15625 11.875 -12.15625 L 9.640625 -12.15625 L 9.640625 -4.40625 L 11.875 -4.40625 C 12.164062 -4.40625 12.375 -4.335938 12.5 -4.203125 C 12.632812 -4.078125 12.703125 -3.867188 12.703125 -3.578125 L 12.703125 -0.828125 C 12.703125 -0.535156 12.632812 -0.320312 12.5 -0.1875 C 12.375 -0.0625 12.164062 0 11.875 0 Z M 2.046875 0 "/></g></g></g><g fill="#fed330" fill-opacity="1"><g transform="translate(35.40951, 17.356663)"><g><path d="M 5.875 0 L 2.421875 0 C 2.128906 0 1.914062 -0.0625 1.78125 -0.1875 C 1.65625 -0.320312 1.59375 -0.535156 1.59375 -0.828125 L 1.59375 -15.78125 C 1.59375 -16.070312 1.65625 -16.28125 1.78125 -16.40625 C 1.914062 -16.539062 2.128906 -16.609375 2.421875 -16.609375 L 4.8125 -16.609375 C 5.113281 -16.609375 5.363281 -16.5625 5.5625 -16.46875 C 5.769531 -16.375 5.976562 -16.210938 6.1875 -15.984375 L 10.65625 -10.859375 L 10.65625 -15.78125 C 10.65625 -16.070312 10.71875 -16.28125 10.84375 -16.40625 C 10.976562 -16.539062 11.191406 -16.609375 11.484375 -16.609375 L 14.9375 -16.609375 C 15.226562 -16.609375 15.441406 -16.539062 15.578125 -16.40625 C 15.710938 -16.28125 15.78125 -16.070312 15.78125 -15.78125 L 15.78125 -0.828125 C 15.78125 -0.535156 15.710938 -0.320312 15.578125 -0.1875 C 15.441406 -0.0625 15.226562 0 14.9375 0 L 11.484375 0 C 11.191406 0 10.976562 -0.0625 10.84375 -0.1875 C 10.71875 -0.320312 10.65625 -0.535156 10.65625 -0.828125 L 10.65625 -3.671875 L 6.71875 -8.4375 L 6.71875 -0.828125 C 6.71875 -0.535156 6.648438 -0.320312 6.515625 -0.1875 C 6.378906 -0.0625 6.164062 0 5.875 0 Z M 5.875 0 "/></g></g></g><g fill="#fed330" fill-opacity="1"><g transform="translate(52.772564, 17.356663)"><g/></g></g><g fill="#000000" fill-opacity="1"><g transform="translate(59.848299, 19.532726)"><g><path d="M 6 0 L 2.421875 0 C 2.128906 0 1.914062 -0.0625 1.78125 -0.1875 C 1.65625 -0.320312 1.59375 -0.535156 1.59375 -0.828125 L 1.59375 -15.78125 C 1.59375 -16.070312 1.65625 -16.28125 1.78125 -16.40625 C 1.914062 -16.539062 2.128906 -16.609375 2.421875 -16.609375 L 12.703125 -16.609375 C 12.992188 -16.609375 13.203125 -16.539062 13.328125 -16.40625 C 13.460938 -16.28125 13.53125 -16.070312 13.53125 -15.78125 L 13.53125 -13.03125 C 13.53125 -12.738281 13.460938 -12.523438 13.328125 -12.390625 C 13.203125 -12.265625 12.992188 -12.203125 12.703125 -12.203125 L 6.828125 -12.203125 L 6.828125 -9.796875 L 10.84375 -9.796875 C 11.132812 -9.796875 11.34375 -9.726562 11.46875 -9.59375 C 11.601562 -9.46875 11.671875 -9.257812 11.671875 -8.96875 L 11.671875 -6.203125 C 11.671875 -5.910156 11.601562 -5.695312 11.46875 -5.5625 C 11.34375 -5.4375 11.132812 -5.375 10.84375 -5.375 L 6.828125 -5.375 L 6.828125 -0.828125 C 6.828125 -0.535156 6.757812 -0.320312 6.625 -0.1875 C 6.5 -0.0625 6.289062 0 6 0 Z M 6 0 "/></g></g></g><g fill="#000000" fill-opacity="1"><g transform="translate(74.098455, 19.532726)"><g><path d="M 15.65625 -4.359375 C 15.65625 -3.648438 15.550781 -3.003906 15.34375 -2.421875 C 15.132812 -1.847656 14.765625 -1.359375 14.234375 -0.953125 C 13.710938 -0.546875 12.984375 -0.226562 12.046875 0 C 11.117188 0.226562 9.941406 0.34375 8.515625 0.34375 C 7.078125 0.34375 5.890625 0.226562 4.953125 0 C 4.015625 -0.226562 3.28125 -0.546875 2.75 -0.953125 C 2.21875 -1.359375 1.847656 -1.847656 1.640625 -2.421875 C 1.441406 -3.003906 1.34375 -3.648438 1.34375 -4.359375 L 1.34375 -12.21875 C 1.34375 -12.925781 1.441406 -13.566406 1.640625 -14.140625 C 1.847656 -14.722656 2.21875 -15.222656 2.75 -15.640625 C 3.28125 -16.054688 4.015625 -16.378906 4.953125 -16.609375 C 5.890625 -16.835938 7.078125 -16.953125 8.515625 -16.953125 C 9.941406 -16.953125 11.117188 -16.835938 12.046875 -16.609375 C 12.984375 -16.378906 13.710938 -16.054688 14.234375 -15.640625 C 14.765625 -15.222656 15.132812 -14.722656 15.34375 -14.140625 C 15.550781 -13.566406 15.65625 -12.925781 15.65625 -12.21875 Z M 6.578125 -5.1875 C 6.578125 -4.882812 6.691406 -4.628906 6.921875 -4.421875 C 7.148438 -4.210938 7.679688 -4.109375 8.515625 -4.109375 C 9.335938 -4.109375 9.863281 -4.210938 10.09375 -4.421875 C 10.332031 -4.628906 10.453125 -4.882812 10.453125 -5.1875 L 10.453125 -11.390625 C 10.453125 -11.679688 10.332031 -11.929688 10.09375 -12.140625 C 9.863281 -12.347656 9.335938 -12.453125 8.515625 -12.453125 C 7.679688 -12.453125 7.148438 -12.347656 6.921875 -12.140625 C 6.691406 -11.929688 6.578125 -11.679688 6.578125 -11.390625 Z M 6.578125 -5.1875 "/></g></g></g><g fill="#000000" fill-opacity="1"><g transform="translate(91.09257, 19.532726)"><g><path d="M 15.65625 -4.359375 C 15.65625 -3.648438 15.550781 -3.003906 15.34375 -2.421875 C 15.132812 -1.847656 14.765625 -1.359375 14.234375 -0.953125 C 13.710938 -0.546875 12.984375 -0.226562 12.046875 0 C 11.117188 0.226562 9.941406 0.34375 8.515625 0.34375 C 7.078125 0.34375 5.890625 0.226562 4.953125 0 C 4.015625 -0.226562 3.28125 -0.546875 2.75 -0.953125 C 2.21875 -1.359375 1.847656 -1.847656 1.640625 -2.421875 C 1.441406 -3.003906 1.34375 -3.648438 1.34375 -4.359375 L 1.34375 -12.21875 C 1.34375 -12.925781 1.441406 -13.566406 1.640625 -14.140625 C 1.847656 -14.722656 2.21875 -15.222656 2.75 -15.640625 C 3.28125 -16.054688 4.015625 -16.378906 4.953125 -16.609375 C 5.890625 -16.835938 7.078125 -16.953125 8.515625 -16.953125 C 9.941406 -16.953125 11.117188 -16.835938 12.046875 -16.609375 C 12.984375 -16.378906 13.710938 -16.054688 14.234375 -15.640625 C 14.765625 -15.222656 15.132812 -14.722656 15.34375 -14.140625 C 15.550781 -13.566406 15.65625 -12.925781 15.65625 -12.21875 Z M 6.578125 -5.1875 C 6.578125 -4.882812 6.691406 -4.628906 6.921875 -4.421875 C 7.148438 -4.210938 7.679688 -4.109375 8.515625 -4.109375 C 9.335938 -4.109375 9.863281 -4.210938 10.09375 -4.421875 C 10.332031 -4.628906 10.453125 -4.882812 10.453125 -5.1875 L 10.453125 -11.390625 C 10.453125 -11.679688 10.332031 -11.929688 10.09375 -12.140625 C 9.863281 -12.347656 9.335938 -12.453125 8.515625 -12.453125 C 7.679688 -12.453125 7.148438 -12.347656 6.921875 -12.140625 C 6.691406 -11.929688 6.578125 -11.679688 6.578125 -11.390625 Z M 6.578125 -5.1875 "/></g></g></g><g fill="#000000" fill-opacity="1"><g transform="translate(108.086685, 19.532726)"><g><path d="M 10.1875 0 L 2.421875 0 C 2.128906 0 1.914062 -0.0625 1.78125 -0.1875 C 1.65625 -0.320312 1.59375 -0.535156 1.59375 -0.828125 L 1.59375 -15.78125 C 1.59375 -16.070312 1.65625 -16.28125 1.78125 -16.40625 C 1.914062 -16.539062 2.128906 -16.609375 2.421875 -16.609375 L 10.1875 -16.609375 C 12.113281 -16.609375 13.539062 -16.222656 14.46875 -15.453125 C 15.394531 -14.679688 15.859375 -13.5 15.859375 -11.90625 L 15.859375 -4.703125 C 15.859375 -3.109375 15.394531 -1.925781 14.46875 -1.15625 C 13.539062 -0.382812 12.113281 0 10.1875 0 Z M 6.828125 -12.203125 L 6.828125 -4.359375 L 9.578125 -4.359375 C 9.941406 -4.359375 10.210938 -4.445312 10.390625 -4.625 C 10.566406 -4.8125 10.65625 -5.097656 10.65625 -5.484375 L 10.65625 -11.09375 C 10.65625 -11.476562 10.566406 -11.757812 10.390625 -11.9375 C 10.210938 -12.113281 9.941406 -12.203125 9.578125 -12.203125 Z M 6.828125 -12.203125 "/></g></g></g><g fill="#fed330" fill-opacity="1"><g transform="translate(57.956676, 17.356663)"><g><path d="M 6 0 L 2.421875 0 C 2.128906 0 1.914062 -0.0625 1.78125 -0.1875 C 1.65625 -0.320312 1.59375 -0.535156 1.59375 -0.828125 L 1.59375 -15.78125 C 1.59375 -16.070312 1.65625 -16.28125 1.78125 -16.40625 C 1.914062 -16.539062 2.128906 -16.609375 2.421875 -16.609375 L 12.703125 -16.609375 C 12.992188 -16.609375 13.203125 -16.539062 13.328125 -16.40625 C 13.460938 -16.28125 13.53125 -16.070312 13.53125 -15.78125 L 13.53125 -13.03125 C 13.53125 -12.738281 13.460938 -12.523438 13.328125 -12.390625 C 13.203125 -12.265625 12.992188 -12.203125 12.703125 -12.203125 L 6.828125 -12.203125 L 6.828125 -9.796875 L 10.84375 -9.796875 C 11.132812 -9.796875 11.34375 -9.726562 11.46875 -9.59375 C 11.601562 -9.46875 11.671875 -9.257812 11.671875 -8.96875 L 11.671875 -6.203125 C 11.671875 -5.910156 11.601562 -5.695312 11.46875 -5.5625 C 11.34375 -5.4375 11.132812 -5.375 10.84375 -5.375 L 6.828125 -5.375 L 6.828125 -0.828125 C 6.828125 -0.535156 6.757812 -0.320312 6.625 -0.1875 C 6.5 -0.0625 6.289062 0 6 0 Z M 6 0 "/></g></g></g><g fill="#fed330" fill-opacity="1"><g transform="translate(72.206832, 17.356663)"><g><path d="M 15.65625 -4.359375 C 15.65625 -3.648438 15.550781 -3.003906 15.34375 -2.421875 C 15.132812 -1.847656 14.765625 -1.359375 14.234375 -0.953125 C 13.710938 -0.546875 12.984375 -0.226562 12.046875 0 C 11.117188 0.226562 9.941406 0.34375 8.515625 0.34375 C 7.078125 0.34375 5.890625 0.226562 4.953125 0 C 4.015625 -0.226562 3.28125 -0.546875 2.75 -0.953125 C 2.21875 -1.359375 1.847656 -1.847656 1.640625 -2.421875 C 1.441406 -3.003906 1.34375 -3.648438 1.34375 -4.359375 L 1.34375 -12.21875 C 1.34375 -12.925781 1.441406 -13.566406 1.640625 -14.140625 C 1.847656 -14.722656 2.21875 -15.222656 2.75 -15.640625 C 3.28125 -16.054688 4.015625 -16.378906 4.953125 -16.609375 C 5.890625 -16.835938 7.078125 -16.953125 8.515625 -16.953125 C 9.941406 -16.953125 11.117188 -16.835938 12.046875 -16.609375 C 12.984375 -16.378906 13.710938 -16.054688 14.234375 -15.640625 C 14.765625 -15.222656 15.132812 -14.722656 15.34375 -14.140625 C 15.550781 -13.566406 15.65625 -12.925781 15.65625 -12.21875 Z M 6.578125 -5.1875 C 6.578125 -4.882812 6.691406 -4.628906 6.921875 -4.421875 C 7.148438 -4.210938 7.679688 -4.109375 8.515625 -4.109375 C 9.335938 -4.109375 9.863281 -4.210938 10.09375 -4.421875 C 10.332031 -4.628906 10.453125 -4.882812 10.453125 -5.1875 L 10.453125 -11.390625 C 10.453125 -11.679688 10.332031 -11.929688 10.09375 -12.140625 C 9.863281 -12.347656 9.335938 -12.453125 8.515625 -12.453125 C 7.679688 -12.453125 7.148438 -12.347656 6.921875 -12.140625 C 6.691406 -11.929688 6.578125 -11.679688 6.578125 -11.390625 Z M 6.578125 -5.1875 "/></g></g></g><g fill="#fed330" fill-opacity="1"><g transform="translate(89.200947, 17.356663)"><g><path d="M 15.65625 -4.359375 C 15.65625 -3.648438 15.550781 -3.003906 15.34375 -2.421875 C 15.132812 -1.847656 14.765625 -1.359375 14.234375 -0.953125 C 13.710938 -0.546875 12.984375 -0.226562 12.046875 0 C 11.117188 0.226562 9.941406 0.34375 8.515625 0.34375 C 7.078125 0.34375 5.890625 0.226562 4.953125 0 C 4.015625 -0.226562 3.28125 -0.546875 2.75 -0.953125 C 2.21875 -1.359375 1.847656 -1.847656 1.640625 -2.421875 C 1.441406 -3.003906 1.34375 -3.648438 1.34375 -4.359375 L 1.34375 -12.21875 C 1.34375 -12.925781 1.441406 -13.566406 1.640625 -14.140625 C 1.847656 -14.722656 2.21875 -15.222656 2.75 -15.640625 C 3.28125 -16.054688 4.015625 -16.378906 4.953125 -16.609375 C 5.890625 -16.835938 7.078125 -16.953125 8.515625 -16.953125 C 9.941406 -16.953125 11.117188 -16.835938 12.046875 -16.609375 C 12.984375 -16.378906 13.710938 -16.054688 14.234375 -15.640625 C 14.765625 -15.222656 15.132812 -14.722656 15.34375 -14.140625 C 15.550781 -13.566406 15.65625 -12.925781 15.65625 -12.21875 Z M 6.578125 -5.1875 C 6.578125 -4.882812 6.691406 -4.628906 6.921875 -4.421875 C 7.148438 -4.210938 7.679688 -4.109375 8.515625 -4.109375 C 9.335938 -4.109375 9.863281 -4.210938 10.09375 -4.421875 C 10.332031 -4.628906 10.453125 -4.882812 10.453125 -5.1875 L 10.453125 -11.390625 C 10.453125 -11.679688 10.332031 -11.929688 10.09375 -12.140625 C 9.863281 -12.347656 9.335938 -12.453125 8.515625 -12.453125 C 7.679688 -12.453125 7.148438 -12.347656 6.921875 -12.140625 C 6.691406 -11.929688 6.578125 -11.679688 6.578125 -11.390625 Z M 6.578125 -5.1875 "/></g></g></g><g fill="#fed330" fill-opacity="1"><g transform="translate(106.195063, 17.356663)"><g><path d="M 10.1875 0 L 2.421875 0 C 2.128906 0 1.914062 -0.0625 1.78125 -0.1875 C 1.65625 -0.320312 1.59375 -0.535156 1.59375 -0.828125 L 1.59375 -15.78125 C 1.59375 -16.070312 1.65625 -16.28125 1.78125 -16.40625 C 1.914062 -16.539062 2.128906 -16.609375 2.421875 -16.609375 L 10.1875 -16.609375 C 12.113281 -16.609375 13.539062 -16.222656 14.46875 -15.453125 C 15.394531 -14.679688 15.859375 -13.5 15.859375 -11.90625 L 15.859375 -4.703125 C 15.859375 -3.109375 15.394531 -1.925781 14.46875 -1.15625 C 13.539062 -0.382812 12.113281 0 10.1875 0 Z M 6.828125 -12.203125 L 6.828125 -4.359375 L 9.578125 -4.359375 C 9.941406 -4.359375 10.210938 -4.445312 10.390625 -4.625 C 10.566406 -4.8125 10.65625 -5.097656 10.65625 -5.484375 L 10.65625 -11.09375 C 10.65625 -11.476562 10.566406 -11.757812 10.390625 -11.9375 C 10.210938 -12.113281 9.941406 -12.203125 9.578125 -12.203125 Z M 6.828125 -12.203125 "/></g></g></g><g fill="#000000" fill-opacity="1"><g transform="translate(115.180444, 26.979757)"><g><path d="M 2.90625 -4.484375 L 2.484375 -3.15625 L 3.875 -3.15625 L 3.453125 -4.484375 C 3.429688 -4.535156 3.40625 -4.570312 3.375 -4.59375 C 3.351562 -4.625 3.328125 -4.640625 3.296875 -4.640625 L 3.0625 -4.640625 C 3.03125 -4.640625 3 -4.625 2.96875 -4.59375 C 2.945312 -4.570312 2.925781 -4.535156 2.90625 -4.484375 Z M 2.40625 -0.3125 C 2.40625 -0.207031 2.378906 -0.128906 2.328125 -0.078125 C 2.273438 -0.0234375 2.191406 0 2.078125 0 L 0.796875 0 C 0.679688 0 0.597656 -0.0234375 0.546875 -0.078125 C 0.492188 -0.128906 0.46875 -0.207031 0.46875 -0.3125 L 0.46875 -2.640625 C 0.46875 -2.816406 0.492188 -3.019531 0.546875 -3.25 C 0.609375 -3.476562 0.695312 -3.742188 0.8125 -4.046875 L 1.578125 -6.046875 C 1.617188 -6.140625 1.675781 -6.207031 1.75 -6.25 C 1.820312 -6.300781 1.914062 -6.328125 2.03125 -6.328125 L 4.40625 -6.328125 C 4.507812 -6.328125 4.597656 -6.300781 4.671875 -6.25 C 4.742188 -6.207031 4.800781 -6.140625 4.84375 -6.046875 L 5.609375 -4.046875 C 5.722656 -3.742188 5.804688 -3.476562 5.859375 -3.25 C 5.921875 -3.019531 5.953125 -2.816406 5.953125 -2.640625 L 5.953125 -0.3125 C 5.953125 -0.207031 5.925781 -0.128906 5.875 -0.078125 C 5.820312 -0.0234375 5.738281 0 5.625 0 L 4.296875 0 C 4.179688 0 4.09375 -0.0234375 4.03125 -0.078125 C 3.976562 -0.128906 3.953125 -0.207031 3.953125 -0.3125 L 3.953125 -1.546875 L 2.40625 -1.546875 Z M 2.40625 -0.3125 "/></g></g></g><g fill="#000000" fill-opacity="1"><g transform="translate(121.601882, 26.979757)"><g><path d="M 3.890625 0 L 0.921875 0 C 0.804688 0 0.722656 -0.0234375 0.671875 -0.078125 C 0.628906 -0.128906 0.609375 -0.207031 0.609375 -0.3125 L 0.609375 -6.015625 C 0.609375 -6.128906 0.628906 -6.207031 0.671875 -6.25 C 0.722656 -6.300781 0.804688 -6.328125 0.921875 -6.328125 L 3.890625 -6.328125 C 4.617188 -6.328125 5.160156 -6.179688 5.515625 -5.890625 C 5.867188 -5.597656 6.046875 -5.148438 6.046875 -4.546875 L 6.046875 -1.796875 C 6.046875 -1.179688 5.867188 -0.726562 5.515625 -0.4375 C 5.160156 -0.144531 4.617188 0 3.890625 0 Z M 2.609375 -4.65625 L 2.609375 -1.65625 L 3.65625 -1.65625 C 3.789062 -1.65625 3.890625 -1.691406 3.953125 -1.765625 C 4.023438 -1.835938 4.0625 -1.945312 4.0625 -2.09375 L 4.0625 -4.234375 C 4.0625 -4.378906 4.023438 -4.484375 3.953125 -4.546875 C 3.890625 -4.617188 3.789062 -4.65625 3.65625 -4.65625 Z M 2.609375 -4.65625 "/></g></g></g><g fill="#000000" fill-opacity="1"><g transform="translate(128.164064, 26.979757)"><g><path d="M 2.234375 0 L 0.921875 0 C 0.804688 0 0.722656 -0.0234375 0.671875 -0.078125 C 0.628906 -0.128906 0.609375 -0.207031 0.609375 -0.3125 L 0.609375 -6.015625 C 0.609375 -6.128906 0.628906 -6.207031 0.671875 -6.25 C 0.722656 -6.300781 0.804688 -6.328125 0.921875 -6.328125 L 2.34375 -6.328125 C 2.4375 -6.328125 2.515625 -6.304688 2.578125 -6.265625 C 2.640625 -6.222656 2.695312 -6.15625 2.75 -6.0625 L 3.53125 -4.640625 C 3.5625 -4.585938 3.585938 -4.546875 3.609375 -4.515625 C 3.628906 -4.492188 3.65625 -4.484375 3.6875 -4.484375 L 3.78125 -4.484375 C 3.8125 -4.484375 3.835938 -4.492188 3.859375 -4.515625 C 3.878906 -4.546875 3.90625 -4.585938 3.9375 -4.640625 L 4.71875 -6.0625 C 4.769531 -6.15625 4.828125 -6.222656 4.890625 -6.265625 C 4.953125 -6.304688 5.03125 -6.328125 5.125 -6.328125 L 6.546875 -6.328125 C 6.660156 -6.328125 6.738281 -6.300781 6.78125 -6.25 C 6.832031 -6.207031 6.859375 -6.128906 6.859375 -6.015625 L 6.859375 -0.3125 C 6.859375 -0.207031 6.832031 -0.128906 6.78125 -0.078125 C 6.738281 -0.0234375 6.660156 0 6.546875 0 L 5.1875 0 C 5.070312 0 4.988281 -0.0234375 4.9375 -0.078125 C 4.894531 -0.128906 4.875 -0.207031 4.875 -0.3125 L 4.875 -3.40625 L 4.359375 -2.453125 C 4.304688 -2.359375 4.242188 -2.285156 4.171875 -2.234375 C 4.097656 -2.191406 4.003906 -2.171875 3.890625 -2.171875 L 3.53125 -2.171875 C 3.425781 -2.171875 3.335938 -2.191406 3.265625 -2.234375 C 3.191406 -2.285156 3.125 -2.359375 3.0625 -2.453125 L 2.546875 -3.40625 L 2.546875 -0.3125 C 2.546875 -0.207031 2.519531 -0.128906 2.46875 -0.078125 C 2.425781 -0.0234375 2.347656 0 2.234375 0 Z M 2.234375 0 "/></g></g></g><g fill="#000000" fill-opacity="1"><g transform="translate(135.632285, 26.979757)"><g><path d="M 0.78125 0 C 0.664062 0 0.582031 -0.0234375 0.53125 -0.078125 C 0.488281 -0.128906 0.46875 -0.207031 0.46875 -0.3125 L 0.46875 -1.359375 C 0.46875 -1.472656 0.488281 -1.554688 0.53125 -1.609375 C 0.582031 -1.660156 0.664062 -1.6875 0.78125 -1.6875 L 1.65625 -1.6875 L 1.65625 -4.640625 L 0.78125 -4.640625 C 0.664062 -4.640625 0.582031 -4.660156 0.53125 -4.703125 C 0.488281 -4.753906 0.46875 -4.835938 0.46875 -4.953125 L 0.46875 -6.015625 C 0.46875 -6.128906 0.488281 -6.207031 0.53125 -6.25 C 0.582031 -6.300781 0.664062 -6.328125 0.78125 -6.328125 L 4.53125 -6.328125 C 4.644531 -6.328125 4.722656 -6.300781 4.765625 -6.25 C 4.816406 -6.207031 4.84375 -6.128906 4.84375 -6.015625 L 4.84375 -4.953125 C 4.84375 -4.835938 4.816406 -4.753906 4.765625 -4.703125 C 4.722656 -4.660156 4.644531 -4.640625 4.53125 -4.640625 L 3.671875 -4.640625 L 3.671875 -1.6875 L 4.53125 -1.6875 C 4.644531 -1.6875 4.722656 -1.660156 4.765625 -1.609375 C 4.816406 -1.554688 4.84375 -1.472656 4.84375 -1.359375 L 4.84375 -0.3125 C 4.84375 -0.207031 4.816406 -0.128906 4.765625 -0.078125 C 4.722656 -0.0234375 4.644531 0 4.53125 0 Z M 0.78125 0 "/></g></g></g><g fill="#000000" fill-opacity="1"><g transform="translate(140.954168, 26.979757)"><g><path d="M 2.25 0 L 0.921875 0 C 0.804688 0 0.722656 -0.0234375 0.671875 -0.078125 C 0.628906 -0.128906 0.609375 -0.207031 0.609375 -0.3125 L 0.609375 -6.015625 C 0.609375 -6.128906 0.628906 -6.207031 0.671875 -6.25 C 0.722656 -6.300781 0.804688 -6.328125 0.921875 -6.328125 L 1.84375 -6.328125 C 1.945312 -6.328125 2.039062 -6.3125 2.125 -6.28125 C 2.207031 -6.25 2.285156 -6.1875 2.359375 -6.09375 L 4.0625 -4.140625 L 4.0625 -6.015625 C 4.0625 -6.128906 4.085938 -6.207031 4.140625 -6.25 C 4.191406 -6.300781 4.269531 -6.328125 4.375 -6.328125 L 5.703125 -6.328125 C 5.816406 -6.328125 5.894531 -6.300781 5.9375 -6.25 C 5.988281 -6.207031 6.015625 -6.128906 6.015625 -6.015625 L 6.015625 -0.3125 C 6.015625 -0.207031 5.988281 -0.128906 5.9375 -0.078125 C 5.894531 -0.0234375 5.816406 0 5.703125 0 L 4.375 0 C 4.269531 0 4.191406 -0.0234375 4.140625 -0.078125 C 4.085938 -0.128906 4.0625 -0.207031 4.0625 -0.3125 L 4.0625 -1.40625 L 2.5625 -3.21875 L 2.5625 -0.3125 C 2.5625 -0.207031 2.535156 -0.128906 2.484375 -0.078125 C 2.429688 -0.0234375 2.351562 0 2.25 0 Z M 2.25 0 "/></g></g></g></svg>