<svg xmlns="http://www.w3.org/2000/svg" xmlns:xlink="http://www.w3.org/1999/xlink" width="200" zoomAndPan="magnify" viewBox="0 0 150 30.000001" height="40" preserveAspectRatio="xMidYMid meet" version="1.0"><defs><g/></defs><g fill="#000000" fill-opacity="1"><g transform="translate(5.13448, 26.293473)"><g><path d="M 6.828125 0 L 2.828125 0 C 2.484375 0 2.234375 -0.0703125 2.078125 -0.21875 C 1.929688 -0.375 1.859375 -0.625 1.859375 -0.96875 L 1.859375 -18.375 C 1.859375 -18.71875 1.929688 -18.960938 2.078125 -19.109375 C 2.234375 -19.265625 2.484375 -19.34375 2.828125 -19.34375 L 7.15625 -19.34375 C 7.4375 -19.34375 7.671875 -19.28125 7.859375 -19.15625 C 8.046875 -19.03125 8.222656 -18.828125 8.390625 -18.546875 L 10.796875 -14.15625 C 10.890625 -14 10.96875 -13.882812 11.03125 -13.8125 C 11.09375 -13.738281 11.175781 -13.703125 11.28125 -13.703125 L 11.53125 -13.703125 C 11.632812 -13.703125 11.71875 -13.738281 11.78125 -13.8125 C 11.84375 -13.882812 11.921875 -14 12.015625 -14.15625 L 14.40625 -18.546875 C 14.5625 -18.828125 14.734375 -19.03125 14.921875 -19.15625 C 15.117188 -19.28125 15.359375 -19.34375 15.640625 -19.34375 L 20 -19.34375 C 20.332031 -19.34375 20.578125 -19.265625 20.734375 -19.109375 C 20.890625 -18.960938 20.96875 -18.71875 20.96875 -18.375 L 20.96875 -0.96875 C 20.96875 -0.625 20.890625 -0.375 20.734375 -0.21875 C 20.578125 -0.0703125 20.332031 0 20 0 L 15.859375 0 C 15.515625 0 15.265625 -0.0703125 15.109375 -0.21875 C 14.960938 -0.375 14.890625 -0.625 14.890625 -0.96875 L 14.890625 -10.421875 L 13.296875 -7.5 C 13.140625 -7.195312 12.945312 -6.976562 12.71875 -6.84375 C 12.5 -6.707031 12.21875 -6.640625 11.875 -6.640625 L 10.796875 -6.640625 C 10.460938 -6.640625 10.179688 -6.707031 9.953125 -6.84375 C 9.734375 -6.976562 9.539062 -7.195312 9.375 -7.5 L 7.796875 -10.421875 L 7.796875 -0.96875 C 7.796875 -0.625 7.71875 -0.375 7.5625 -0.21875 C 7.414062 -0.0703125 7.171875 0 6.828125 0 Z M 6.828125 0 "/></g></g></g><g fill="#000000" fill-opacity="1"><g transform="translate(27.943902, 26.293473)"><g><path d="M 2.390625 0 C 2.046875 0 1.796875 -0.0703125 1.640625 -0.21875 C 1.492188 -0.375 1.421875 -0.625 1.421875 -0.96875 L 1.421875 -4.171875 C 1.421875 -4.503906 1.492188 -4.75 1.640625 -4.90625 C 1.796875 -5.0625 2.046875 -5.140625 2.390625 -5.140625 L 5.046875 -5.140625 L 5.046875 -14.15625 L 2.390625 -14.15625 C 2.046875 -14.15625 1.796875 -14.234375 1.640625 -14.390625 C 1.492188 -14.546875 1.421875 -14.789062 1.421875 -15.125 L 1.421875 -18.375 C 1.421875 -18.71875 1.492188 -18.960938 1.640625 -19.109375 C 1.796875 -19.265625 2.046875 -19.34375 2.390625 -19.34375 L 13.84375 -19.34375 C 14.175781 -19.34375 14.421875 -19.265625 14.578125 -19.109375 C 14.734375 -18.960938 14.8125 -18.71875 14.8125 -18.375 L 14.8125 -15.125 C 14.8125 -14.789062 14.734375 -14.546875 14.578125 -14.390625 C 14.421875 -14.234375 14.175781 -14.15625 13.84375 -14.15625 L 11.234375 -14.15625 L 11.234375 -5.140625 L 13.84375 -5.140625 C 14.175781 -5.140625 14.421875 -5.0625 14.578125 -4.90625 C 14.734375 -4.75 14.8125 -4.503906 14.8125 -4.171875 L 14.8125 -0.96875 C 14.8125 -0.625 14.734375 -0.375 14.578125 -0.21875 C 14.421875 -0.0703125 14.175781 0 13.84375 0 Z M 2.390625 0 "/></g></g></g><g fill="#000000" fill-opacity="1"><g transform="translate(44.197963, 26.293473)"><g><path d="M 6.859375 0 L 2.828125 0 C 2.484375 0 2.234375 -0.0703125 2.078125 -0.21875 C 1.929688 -0.375 1.859375 -0.625 1.859375 -0.96875 L 1.859375 -18.375 C 1.859375 -18.71875 1.929688 -18.960938 2.078125 -19.109375 C 2.234375 -19.265625 2.484375 -19.34375 2.828125 -19.34375 L 5.609375 -19.34375 C 5.953125 -19.34375 6.242188 -19.289062 6.484375 -19.1875 C 6.734375 -19.082031 6.972656 -18.894531 7.203125 -18.625 L 12.421875 -12.65625 L 12.421875 -18.375 C 12.421875 -18.71875 12.492188 -18.960938 12.640625 -19.109375 C 12.796875 -19.265625 13.046875 -19.34375 13.390625 -19.34375 L 17.421875 -19.34375 C 17.753906 -19.34375 17.992188 -19.265625 18.140625 -19.109375 C 18.296875 -18.960938 18.375 -18.71875 18.375 -18.375 L 18.375 -0.96875 C 18.375 -0.625 18.296875 -0.375 18.140625 -0.21875 C 17.992188 -0.0703125 17.753906 0 17.421875 0 L 13.390625 0 C 13.046875 0 12.796875 -0.0703125 12.640625 -0.21875 C 12.492188 -0.375 12.421875 -0.625 12.421875 -0.96875 L 12.421875 -4.265625 L 7.828125 -9.84375 L 7.828125 -0.96875 C 7.828125 -0.625 7.75 -0.375 7.59375 -0.21875 C 7.4375 -0.0703125 7.191406 0 6.859375 0 Z M 6.859375 0 "/></g></g></g><g fill="#000000" fill-opacity="1"><g transform="translate(64.428223, 26.293473)"><g/></g></g><g fill="#fed330" fill-opacity="1"><g transform="translate(2.930488, 23.758071)"><g><path d="M 6.828125 0 L 2.828125 0 C 2.484375 0 2.234375 -0.0703125 2.078125 -0.21875 C 1.929688 -0.375 1.859375 -0.625 1.859375 -0.96875 L 1.859375 -18.375 C 1.859375 -18.71875 1.929688 -18.960938 2.078125 -19.109375 C 2.234375 -19.265625 2.484375 -19.34375 2.828125 -19.34375 L 7.15625 -19.34375 C 7.4375 -19.34375 7.671875 -19.28125 7.859375 -19.15625 C 8.046875 -19.03125 8.222656 -18.828125 8.390625 -18.546875 L 10.796875 -14.15625 C 10.890625 -14 10.96875 -13.882812 11.03125 -13.8125 C 11.09375 -13.738281 11.175781 -13.703125 11.28125 -13.703125 L 11.53125 -13.703125 C 11.632812 -13.703125 11.71875 -13.738281 11.78125 -13.8125 C 11.84375 -13.882812 11.921875 -14 12.015625 -14.15625 L 14.40625 -18.546875 C 14.5625 -18.828125 14.734375 -19.03125 14.921875 -19.15625 C 15.117188 -19.28125 15.359375 -19.34375 15.640625 -19.34375 L 20 -19.34375 C 20.332031 -19.34375 20.578125 -19.265625 20.734375 -19.109375 C 20.890625 -18.960938 20.96875 -18.71875 20.96875 -18.375 L 20.96875 -0.96875 C 20.96875 -0.625 20.890625 -0.375 20.734375 -0.21875 C 20.578125 -0.0703125 20.332031 0 20 0 L 15.859375 0 C 15.515625 0 15.265625 -0.0703125 15.109375 -0.21875 C 14.960938 -0.375 14.890625 -0.625 14.890625 -0.96875 L 14.890625 -10.421875 L 13.296875 -7.5 C 13.140625 -7.195312 12.945312 -6.976562 12.71875 -6.84375 C 12.5 -6.707031 12.21875 -6.640625 11.875 -6.640625 L 10.796875 -6.640625 C 10.460938 -6.640625 10.179688 -6.707031 9.953125 -6.84375 C 9.734375 -6.976562 9.539062 -7.195312 9.375 -7.5 L 7.796875 -10.421875 L 7.796875 -0.96875 C 7.796875 -0.625 7.71875 -0.375 7.5625 -0.21875 C 7.414062 -0.0703125 7.171875 0 6.828125 0 Z M 6.828125 0 "/></g></g></g><g fill="#fed330" fill-opacity="1"><g transform="translate(25.73991, 23.758071)"><g><path d="M 2.390625 0 C 2.046875 0 1.796875 -0.0703125 1.640625 -0.21875 C 1.492188 -0.375 1.421875 -0.625 1.421875 -0.96875 L 1.421875 -4.171875 C 1.421875 -4.503906 1.492188 -4.75 1.640625 -4.90625 C 1.796875 -5.0625 2.046875 -5.140625 2.390625 -5.140625 L 5.046875 -5.140625 L 5.046875 -14.15625 L 2.390625 -14.15625 C 2.046875 -14.15625 1.796875 -14.234375 1.640625 -14.390625 C 1.492188 -14.546875 1.421875 -14.789062 1.421875 -15.125 L 1.421875 -18.375 C 1.421875 -18.71875 1.492188 -18.960938 1.640625 -19.109375 C 1.796875 -19.265625 2.046875 -19.34375 2.390625 -19.34375 L 13.84375 -19.34375 C 14.175781 -19.34375 14.421875 -19.265625 14.578125 -19.109375 C 14.734375 -18.960938 14.8125 -18.71875 14.8125 -18.375 L 14.8125 -15.125 C 14.8125 -14.789062 14.734375 -14.546875 14.578125 -14.390625 C 14.421875 -14.234375 14.175781 -14.15625 13.84375 -14.15625 L 11.234375 -14.15625 L 11.234375 -5.140625 L 13.84375 -5.140625 C 14.175781 -5.140625 14.421875 -5.0625 14.578125 -4.90625 C 14.734375 -4.75 14.8125 -4.503906 14.8125 -4.171875 L 14.8125 -0.96875 C 14.8125 -0.625 14.734375 -0.375 14.578125 -0.21875 C 14.421875 -0.0703125 14.175781 0 13.84375 0 Z M 2.390625 0 "/></g></g></g><g fill="#fed330" fill-opacity="1"><g transform="translate(41.993972, 23.758071)"><g><path d="M 6.859375 0 L 2.828125 0 C 2.484375 0 2.234375 -0.0703125 2.078125 -0.21875 C 1.929688 -0.375 1.859375 -0.625 1.859375 -0.96875 L 1.859375 -18.375 C 1.859375 -18.71875 1.929688 -18.960938 2.078125 -19.109375 C 2.234375 -19.265625 2.484375 -19.34375 2.828125 -19.34375 L 5.609375 -19.34375 C 5.953125 -19.34375 6.242188 -19.289062 6.484375 -19.1875 C 6.734375 -19.082031 6.972656 -18.894531 7.203125 -18.625 L 12.421875 -12.65625 L 12.421875 -18.375 C 12.421875 -18.71875 12.492188 -18.960938 12.640625 -19.109375 C 12.796875 -19.265625 13.046875 -19.34375 13.390625 -19.34375 L 17.421875 -19.34375 C 17.753906 -19.34375 17.992188 -19.265625 18.140625 -19.109375 C 18.296875 -18.960938 18.375 -18.71875 18.375 -18.375 L 18.375 -0.96875 C 18.375 -0.625 18.296875 -0.375 18.140625 -0.21875 C 17.992188 -0.0703125 17.753906 0 17.421875 0 L 13.390625 0 C 13.046875 0 12.796875 -0.0703125 12.640625 -0.21875 C 12.492188 -0.375 12.421875 -0.625 12.421875 -0.96875 L 12.421875 -4.265625 L 7.828125 -9.84375 L 7.828125 -0.96875 C 7.828125 -0.625 7.75 -0.375 7.59375 -0.21875 C 7.4375 -0.0703125 7.191406 0 6.859375 0 Z M 6.859375 0 "/></g></g></g><g fill="#fed330" fill-opacity="1"><g transform="translate(62.224232, 23.758071)"><g/></g></g><g fill="#000000" fill-opacity="1"><g transform="translate(70.4684, 26.293473)"><g><path d="M 6.984375 0 L 2.828125 0 C 2.484375 0 2.234375 -0.0703125 2.078125 -0.21875 C 1.929688 -0.375 1.859375 -0.625 1.859375 -0.96875 L 1.859375 -18.375 C 1.859375 -18.71875 1.929688 -18.960938 2.078125 -19.109375 C 2.234375 -19.265625 2.484375 -19.34375 2.828125 -19.34375 L 14.8125 -19.34375 C 15.144531 -19.34375 15.390625 -19.265625 15.546875 -19.109375 C 15.703125 -18.960938 15.78125 -18.71875 15.78125 -18.375 L 15.78125 -15.1875 C 15.78125 -14.84375 15.703125 -14.59375 15.546875 -14.4375 C 15.390625 -14.289062 15.144531 -14.21875 14.8125 -14.21875 L 7.953125 -14.21875 L 7.953125 -11.421875 L 12.625 -11.421875 C 12.96875 -11.421875 13.210938 -11.34375 13.359375 -11.1875 C 13.515625 -11.039062 13.59375 -10.796875 13.59375 -10.453125 L 13.59375 -7.234375 C 13.59375 -6.890625 13.515625 -6.640625 13.359375 -6.484375 C 13.210938 -6.335938 12.96875 -6.265625 12.625 -6.265625 L 7.953125 -6.265625 L 7.953125 -0.96875 C 7.953125 -0.625 7.875 -0.375 7.71875 -0.21875 C 7.570312 -0.0703125 7.328125 0 6.984375 0 Z M 6.984375 0 "/></g></g></g><g fill="#000000" fill-opacity="1"><g transform="translate(87.071722, 26.293473)"><g><path d="M 18.25 -5.078125 C 18.25 -4.253906 18.125 -3.503906 17.875 -2.828125 C 17.632812 -2.160156 17.207031 -1.585938 16.59375 -1.109375 C 15.976562 -0.640625 15.128906 -0.269531 14.046875 0 C 12.960938 0.269531 11.585938 0.40625 9.921875 0.40625 C 8.253906 0.40625 6.875 0.269531 5.78125 0 C 4.6875 -0.269531 3.828125 -0.640625 3.203125 -1.109375 C 2.585938 -1.585938 2.160156 -2.160156 1.921875 -2.828125 C 1.679688 -3.503906 1.5625 -4.253906 1.5625 -5.078125 L 1.5625 -14.25 C 1.5625 -15.070312 1.679688 -15.816406 1.921875 -16.484375 C 2.160156 -17.160156 2.585938 -17.738281 3.203125 -18.21875 C 3.828125 -18.707031 4.6875 -19.082031 5.78125 -19.34375 C 6.875 -19.613281 8.253906 -19.75 9.921875 -19.75 C 11.585938 -19.75 12.960938 -19.613281 14.046875 -19.34375 C 15.128906 -19.082031 15.976562 -18.707031 16.59375 -18.21875 C 17.207031 -17.738281 17.632812 -17.160156 17.875 -16.484375 C 18.125 -15.816406 18.25 -15.070312 18.25 -14.25 Z M 7.65625 -6.046875 C 7.65625 -5.691406 7.789062 -5.390625 8.0625 -5.140625 C 8.332031 -4.898438 8.953125 -4.78125 9.921875 -4.78125 C 10.890625 -4.78125 11.503906 -4.898438 11.765625 -5.140625 C 12.035156 -5.390625 12.171875 -5.691406 12.171875 -6.046875 L 12.171875 -13.28125 C 12.171875 -13.613281 12.035156 -13.898438 11.765625 -14.140625 C 11.503906 -14.390625 10.890625 -14.515625 9.921875 -14.515625 C 8.953125 -14.515625 8.332031 -14.390625 8.0625 -14.140625 C 7.789062 -13.898438 7.65625 -13.613281 7.65625 -13.28125 Z M 7.65625 -6.046875 "/></g></g></g><g fill="#000000" fill-opacity="1"><g transform="translate(106.872119, 26.293473)"><g><path d="M 18.25 -5.078125 C 18.25 -4.253906 18.125 -3.503906 17.875 -2.828125 C 17.632812 -2.160156 17.207031 -1.585938 16.59375 -1.109375 C 15.976562 -0.640625 15.128906 -0.269531 14.046875 0 C 12.960938 0.269531 11.585938 0.40625 9.921875 0.40625 C 8.253906 0.40625 6.875 0.269531 5.78125 0 C 4.6875 -0.269531 3.828125 -0.640625 3.203125 -1.109375 C 2.585938 -1.585938 2.160156 -2.160156 1.921875 -2.828125 C 1.679688 -3.503906 1.5625 -4.253906 1.5625 -5.078125 L 1.5625 -14.25 C 1.5625 -15.070312 1.679688 -15.816406 1.921875 -16.484375 C 2.160156 -17.160156 2.585938 -17.738281 3.203125 -18.21875 C 3.828125 -18.707031 4.6875 -19.082031 5.78125 -19.34375 C 6.875 -19.613281 8.253906 -19.75 9.921875 -19.75 C 11.585938 -19.75 12.960938 -19.613281 14.046875 -19.34375 C 15.128906 -19.082031 15.976562 -18.707031 16.59375 -18.21875 C 17.207031 -17.738281 17.632812 -17.160156 17.875 -16.484375 C 18.125 -15.816406 18.25 -15.070312 18.25 -14.25 Z M 7.65625 -6.046875 C 7.65625 -5.691406 7.789062 -5.390625 8.0625 -5.140625 C 8.332031 -4.898438 8.953125 -4.78125 9.921875 -4.78125 C 10.890625 -4.78125 11.503906 -4.898438 11.765625 -5.140625 C 12.035156 -5.390625 12.171875 -5.691406 12.171875 -6.046875 L 12.171875 -13.28125 C 12.171875 -13.613281 12.035156 -13.898438 11.765625 -14.140625 C 11.503906 -14.390625 10.890625 -14.515625 9.921875 -14.515625 C 8.953125 -14.515625 8.332031 -14.390625 8.0625 -14.140625 C 7.789062 -13.898438 7.65625 -13.613281 7.65625 -13.28125 Z M 7.65625 -6.046875 "/></g></g></g><g fill="#000000" fill-opacity="1"><g transform="translate(126.672517, 26.293473)"><g><path d="M 11.875 0 L 2.828125 0 C 2.484375 0 2.234375 -0.0703125 2.078125 -0.21875 C 1.929688 -0.375 1.859375 -0.625 1.859375 -0.96875 L 1.859375 -18.375 C 1.859375 -18.71875 1.929688 -18.960938 2.078125 -19.109375 C 2.234375 -19.265625 2.484375 -19.34375 2.828125 -19.34375 L 11.875 -19.34375 C 14.113281 -19.34375 15.773438 -18.894531 16.859375 -18 C 17.941406 -17.101562 18.484375 -15.726562 18.484375 -13.875 L 18.484375 -5.484375 C 18.484375 -3.617188 17.941406 -2.238281 16.859375 -1.34375 C 15.773438 -0.445312 14.113281 0 11.875 0 Z M 7.953125 -14.21875 L 7.953125 -5.078125 L 11.15625 -5.078125 C 11.582031 -5.078125 11.898438 -5.179688 12.109375 -5.390625 C 12.316406 -5.609375 12.421875 -5.941406 12.421875 -6.390625 L 12.421875 -12.921875 C 12.421875 -13.367188 12.316406 -13.695312 12.109375 -13.90625 C 11.898438 -14.113281 11.582031 -14.21875 11.15625 -14.21875 Z M 7.953125 -14.21875 "/></g></g></g><g fill="#fed330" fill-opacity="1"><g transform="translate(68.264409, 23.758071)"><g><path d="M 6.984375 0 L 2.828125 0 C 2.484375 0 2.234375 -0.0703125 2.078125 -0.21875 C 1.929688 -0.375 1.859375 -0.625 1.859375 -0.96875 L 1.859375 -18.375 C 1.859375 -18.71875 1.929688 -18.960938 2.078125 -19.109375 C 2.234375 -19.265625 2.484375 -19.34375 2.828125 -19.34375 L 14.8125 -19.34375 C 15.144531 -19.34375 15.390625 -19.265625 15.546875 -19.109375 C 15.703125 -18.960938 15.78125 -18.71875 15.78125 -18.375 L 15.78125 -15.1875 C 15.78125 -14.84375 15.703125 -14.59375 15.546875 -14.4375 C 15.390625 -14.289062 15.144531 -14.21875 14.8125 -14.21875 L 7.953125 -14.21875 L 7.953125 -11.421875 L 12.625 -11.421875 C 12.96875 -11.421875 13.210938 -11.34375 13.359375 -11.1875 C 13.515625 -11.039062 13.59375 -10.796875 13.59375 -10.453125 L 13.59375 -7.234375 C 13.59375 -6.890625 13.515625 -6.640625 13.359375 -6.484375 C 13.210938 -6.335938 12.96875 -6.265625 12.625 -6.265625 L 7.953125 -6.265625 L 7.953125 -0.96875 C 7.953125 -0.625 7.875 -0.375 7.71875 -0.21875 C 7.570312 -0.0703125 7.328125 0 6.984375 0 Z M 6.984375 0 "/></g></g></g><g fill="#fed330" fill-opacity="1"><g transform="translate(84.86773, 23.758071)"><g><path d="M 18.25 -5.078125 C 18.25 -4.253906 18.125 -3.503906 17.875 -2.828125 C 17.632812 -2.160156 17.207031 -1.585938 16.59375 -1.109375 C 15.976562 -0.640625 15.128906 -0.269531 14.046875 0 C 12.960938 0.269531 11.585938 0.40625 9.921875 0.40625 C 8.253906 0.40625 6.875 0.269531 5.78125 0 C 4.6875 -0.269531 3.828125 -0.640625 3.203125 -1.109375 C 2.585938 -1.585938 2.160156 -2.160156 1.921875 -2.828125 C 1.679688 -3.503906 1.5625 -4.253906 1.5625 -5.078125 L 1.5625 -14.25 C 1.5625 -15.070312 1.679688 -15.816406 1.921875 -16.484375 C 2.160156 -17.160156 2.585938 -17.738281 3.203125 -18.21875 C 3.828125 -18.707031 4.6875 -19.082031 5.78125 -19.34375 C 6.875 -19.613281 8.253906 -19.75 9.921875 -19.75 C 11.585938 -19.75 12.960938 -19.613281 14.046875 -19.34375 C 15.128906 -19.082031 15.976562 -18.707031 16.59375 -18.21875 C 17.207031 -17.738281 17.632812 -17.160156 17.875 -16.484375 C 18.125 -15.816406 18.25 -15.070312 18.25 -14.25 Z M 7.65625 -6.046875 C 7.65625 -5.691406 7.789062 -5.390625 8.0625 -5.140625 C 8.332031 -4.898438 8.953125 -4.78125 9.921875 -4.78125 C 10.890625 -4.78125 11.503906 -4.898438 11.765625 -5.140625 C 12.035156 -5.390625 12.171875 -5.691406 12.171875 -6.046875 L 12.171875 -13.28125 C 12.171875 -13.613281 12.035156 -13.898438 11.765625 -14.140625 C 11.503906 -14.390625 10.890625 -14.515625 9.921875 -14.515625 C 8.953125 -14.515625 8.332031 -14.390625 8.0625 -14.140625 C 7.789062 -13.898438 7.65625 -13.613281 7.65625 -13.28125 Z M 7.65625 -6.046875 "/></g></g></g><g fill="#fed330" fill-opacity="1"><g transform="translate(104.668128, 23.758071)"><g><path d="M 18.25 -5.078125 C 18.25 -4.253906 18.125 -3.503906 17.875 -2.828125 C 17.632812 -2.160156 17.207031 -1.585938 16.59375 -1.109375 C 15.976562 -0.640625 15.128906 -0.269531 14.046875 0 C 12.960938 0.269531 11.585938 0.40625 9.921875 0.40625 C 8.253906 0.40625 6.875 0.269531 5.78125 0 C 4.6875 -0.269531 3.828125 -0.640625 3.203125 -1.109375 C 2.585938 -1.585938 2.160156 -2.160156 1.921875 -2.828125 C 1.679688 -3.503906 1.5625 -4.253906 1.5625 -5.078125 L 1.5625 -14.25 C 1.5625 -15.070312 1.679688 -15.816406 1.921875 -16.484375 C 2.160156 -17.160156 2.585938 -17.738281 3.203125 -18.21875 C 3.828125 -18.707031 4.6875 -19.082031 5.78125 -19.34375 C 6.875 -19.613281 8.253906 -19.75 9.921875 -19.75 C 11.585938 -19.75 12.960938 -19.613281 14.046875 -19.34375 C 15.128906 -19.082031 15.976562 -18.707031 16.59375 -18.21875 C 17.207031 -17.738281 17.632812 -17.160156 17.875 -16.484375 C 18.125 -15.816406 18.25 -15.070312 18.25 -14.25 Z M 7.65625 -6.046875 C 7.65625 -5.691406 7.789062 -5.390625 8.0625 -5.140625 C 8.332031 -4.898438 8.953125 -4.78125 9.921875 -4.78125 C 10.890625 -4.78125 11.503906 -4.898438 11.765625 -5.140625 C 12.035156 -5.390625 12.171875 -5.691406 12.171875 -6.046875 L 12.171875 -13.28125 C 12.171875 -13.613281 12.035156 -13.898438 11.765625 -14.140625 C 11.503906 -14.390625 10.890625 -14.515625 9.921875 -14.515625 C 8.953125 -14.515625 8.332031 -14.390625 8.0625 -14.140625 C 7.789062 -13.898438 7.65625 -13.613281 7.65625 -13.28125 Z M 7.65625 -6.046875 "/></g></g></g><g fill="#fed330" fill-opacity="1"><g transform="translate(124.468526, 23.758071)"><g><path d="M 11.875 0 L 2.828125 0 C 2.484375 0 2.234375 -0.0703125 2.078125 -0.21875 C 1.929688 -0.375 1.859375 -0.625 1.859375 -0.96875 L 1.859375 -18.375 C 1.859375 -18.71875 1.929688 -18.960938 2.078125 -19.109375 C 2.234375 -19.265625 2.484375 -19.34375 2.828125 -19.34375 L 11.875 -19.34375 C 14.113281 -19.34375 15.773438 -18.894531 16.859375 -18 C 17.941406 -17.101562 18.484375 -15.726562 18.484375 -13.875 L 18.484375 -5.484375 C 18.484375 -3.617188 17.941406 -2.238281 16.859375 -1.34375 C 15.773438 -0.445312 14.113281 0 11.875 0 Z M 7.953125 -14.21875 L 7.953125 -5.078125 L 11.15625 -5.078125 C 11.582031 -5.078125 11.898438 -5.179688 12.109375 -5.390625 C 12.316406 -5.609375 12.421875 -5.941406 12.421875 -6.390625 L 12.421875 -12.921875 C 12.421875 -13.367188 12.316406 -13.695312 12.109375 -13.90625 C 11.898438 -14.113281 11.582031 -14.21875 11.15625 -14.21875 Z M 7.953125 -14.21875 "/></g></g></g></svg>